<?xml version="1.0" encoding="UTF-8" ?>
<svg version="1.1" width="128" height="128" xmlns="http://www.w3.org/2000/svg" shape-rendering="crispEdges">
<rect x="52" y="4" width="24" height="2" fill="#B5B5B5" />
<rect x="44" y="6" width="10" height="2" fill="#B5B5B5" />
<rect x="54" y="6" width="20" height="2" fill="#2E222F" />
<rect x="74" y="6" width="10" height="2" fill="#B5B5B5" />
<rect x="40" y="8" width="6" height="2" fill="#B5B5B5" />
<rect x="46" y="8" width="8" height="2" fill="#2E222F" />
<rect x="54" y="8" width="20" height="4" fill="#005AB4" />
<rect x="74" y="8" width="8" height="2" fill="#2E222F" />
<rect x="82" y="8" width="6" height="2" fill="#B5B5B5" />
<rect x="36" y="10" width="6" height="2" fill="#B5B5B5" />
<rect x="42" y="10" width="4" height="2" fill="#2E222F" />
<rect x="46" y="10" width="8" height="4" fill="#005AB4" />
<rect x="74" y="10" width="8" height="4" fill="#005AB4" />
<rect x="82" y="10" width="4" height="2" fill="#2E222F" />
<rect x="86" y="10" width="6" height="2" fill="#B5B5B5" />
<rect x="32" y="12" width="6" height="2" fill="#B5B5B5" />
<rect x="38" y="12" width="4" height="2" fill="#2E222F" />
<rect x="42" y="12" width="4" height="4" fill="#005AB4" />
<rect x="54" y="12" width="20" height="20" fill="#246CB4" />
<rect x="82" y="12" width="4" height="4" fill="#005AB4" />
<rect x="86" y="12" width="4" height="2" fill="#2E222F" />
<rect x="90" y="12" width="6" height="2" fill="#B5B5B5" />
<rect x="30" y="14" width="4" height="2" fill="#B5B5B5" />
<rect x="34" y="14" width="4" height="2" fill="#2E222F" />
<rect x="38" y="14" width="4" height="4" fill="#005AB4" />
<rect x="46" y="14" width="8" height="20" fill="#246CB4" />
<rect x="74" y="14" width="8" height="20" fill="#246CB4" />
<rect x="86" y="14" width="4" height="4" fill="#005AB4" />
<rect x="90" y="14" width="4" height="2" fill="#2E222F" />
<rect x="94" y="14" width="4" height="2" fill="#B5B5B5" />
<rect x="26" y="16" width="6" height="2" fill="#B5B5B5" />
<rect x="32" y="16" width="2" height="2" fill="#2E222F" />
<rect x="34" y="16" width="4" height="4" fill="#005AB4" />
<rect x="42" y="16" width="4" height="24" fill="#246CB4" />
<rect x="82" y="16" width="4" height="24" fill="#246CB4" />
<rect x="90" y="16" width="4" height="4" fill="#005AB4" />
<rect x="94" y="16" width="2" height="2" fill="#2E222F" />
<rect x="96" y="16" width="6" height="2" fill="#B5B5B5" />
<rect x="24" y="18" width="4" height="2" fill="#B5B5B5" />
<rect x="28" y="18" width="4" height="2" fill="#2E222F" />
<rect x="32" y="18" width="2" height="4" fill="#005AB4" />
<rect x="38" y="18" width="4" height="26" fill="#246CB4" />
<rect x="86" y="18" width="4" height="26" fill="#246CB4" />
<rect x="94" y="18" width="2" height="4" fill="#005AB4" />
<rect x="96" y="18" width="4" height="2" fill="#2E222F" />
<rect x="100" y="18" width="4" height="2" fill="#B5B5B5" />
<rect x="22" y="20" width="4" height="2" fill="#B5B5B5" />
<rect x="26" y="20" width="2" height="2" fill="#2E222F" />
<rect x="28" y="20" width="4" height="4" fill="#005AB4" />
<rect x="34" y="20" width="4" height="28" fill="#246CB4" />
<rect x="90" y="20" width="4" height="28" fill="#246CB4" />
<rect x="96" y="20" width="4" height="4" fill="#005AB4" />
<rect x="100" y="20" width="2" height="2" fill="#2E222F" />
<rect x="102" y="20" width="4" height="2" fill="#B5B5B5" />
<rect x="20" y="22" width="4" height="2" fill="#B5B5B5" />
<rect x="24" y="22" width="2" height="2" fill="#2E222F" />
<rect x="26" y="22" width="2" height="4" fill="#005AB4" />
<rect x="32" y="22" width="2" height="36" fill="#246CB4" />
<rect x="94" y="22" width="2" height="36" fill="#246CB4" />
<rect x="100" y="22" width="2" height="4" fill="#005AB4" />
<rect x="102" y="22" width="2" height="2" fill="#2E222F" />
<rect x="104" y="22" width="4" height="2" fill="#B5B5B5" />
<rect x="18" y="24" width="4" height="2" fill="#B5B5B5" />
<rect x="22" y="24" width="2" height="2" fill="#2E222F" />
<rect x="24" y="24" width="2" height="4" fill="#005AB4" />
<rect x="28" y="24" width="4" height="80" fill="#246CB4" />
<rect x="96" y="24" width="4" height="80" fill="#246CB4" />
<rect x="102" y="24" width="2" height="4" fill="#005AB4" />
<rect x="104" y="24" width="2" height="2" fill="#2E222F" />
<rect x="106" y="24" width="4" height="2" fill="#B5B5B5" />
<rect x="16" y="26" width="4" height="2" fill="#B5B5B5" />
<rect x="20" y="26" width="2" height="2" fill="#2E222F" />
<rect x="22" y="26" width="2" height="6" fill="#005AB4" />
<rect x="26" y="26" width="2" height="76" fill="#246CB4" />
<rect x="100" y="26" width="2" height="76" fill="#246CB4" />
<rect x="104" y="26" width="2" height="6" fill="#005AB4" />
<rect x="106" y="26" width="2" height="2" fill="#2E222F" />
<rect x="108" y="26" width="4" height="2" fill="#B5B5B5" />
<rect x="16" y="28" width="2" height="4" fill="#B5B5B5" />
<rect x="18" y="28" width="2" height="4" fill="#2E222F" />
<rect x="20" y="28" width="2" height="6" fill="#005AB4" />
<rect x="24" y="28" width="2" height="72" fill="#246CB4" />
<rect x="102" y="28" width="2" height="72" fill="#246CB4" />
<rect x="106" y="28" width="2" height="6" fill="#005AB4" />
<rect x="108" y="28" width="2" height="4" fill="#2E222F" />
<rect x="110" y="28" width="2" height="4" fill="#B5B5B5" />
<rect x="14" y="30" width="2" height="4" fill="#B5B5B5" />
<rect x="112" y="30" width="2" height="4" fill="#B5B5B5" />
<rect x="12" y="32" width="2" height="6" fill="#B5B5B5" />
<rect x="16" y="32" width="2" height="2" fill="#2E222F" />
<rect x="18" y="32" width="2" height="6" fill="#005AB4" />
<rect x="22" y="32" width="2" height="64" fill="#246CB4" />
<rect x="54" y="32" width="4" height="2" fill="#246CB4" />
<rect x="58" y="32" width="12" height="2" fill="#6C90B4" />
<rect x="70" y="32" width="4" height="2" fill="#246CB4" />
<rect x="104" y="32" width="2" height="64" fill="#246CB4" />
<rect x="108" y="32" width="2" height="6" fill="#005AB4" />
<rect x="110" y="32" width="2" height="2" fill="#2E222F" />
<rect x="114" y="32" width="2" height="6" fill="#B5B5B5" />
<rect x="14" y="34" width="2" height="4" fill="#2E222F" />
<rect x="16" y="34" width="2" height="8" fill="#005AB4" />
<rect x="20" y="34" width="2" height="60" fill="#246CB4" />
<rect x="46" y="34" width="6" height="2" fill="#246CB4" />
<rect x="52" y="34" width="6" height="2" fill="#6C90B4" />
<rect x="58" y="34" width="12" height="2" fill="#2E222F" />
<rect x="70" y="34" width="6" height="2" fill="#6C90B4" />
<rect x="76" y="34" width="6" height="2" fill="#246CB4" />
<rect x="106" y="34" width="2" height="60" fill="#246CB4" />
<rect x="110" y="34" width="2" height="8" fill="#005AB4" />
<rect x="112" y="34" width="2" height="4" fill="#2E222F" />
<rect x="10" y="36" width="2" height="6" fill="#B5B5B5" />
<rect x="46" y="36" width="2" height="2" fill="#246CB4" />
<rect x="48" y="36" width="4" height="2" fill="#6C90B4" />
<rect x="52" y="36" width="6" height="2" fill="#2E222F" />
<rect x="58" y="36" width="4" height="2" fill="#246CB4" />
<rect x="62" y="36" width="4" height="6" fill="#2E222F" />
<rect x="66" y="36" width="4" height="2" fill="#246CB4" />
<rect x="70" y="36" width="6" height="2" fill="#2E222F" />
<rect x="76" y="36" width="4" height="2" fill="#6C90B4" />
<rect x="80" y="36" width="2" height="2" fill="#246CB4" />
<rect x="116" y="36" width="2" height="6" fill="#B5B5B5" />
<rect x="12" y="38" width="2" height="4" fill="#2E222F" />
<rect x="14" y="38" width="2" height="8" fill="#005AB4" />
<rect x="18" y="38" width="2" height="52" fill="#246CB4" />
<rect x="46" y="38" width="2" height="2" fill="#6C90B4" />
<rect x="48" y="38" width="4" height="2" fill="#2E222F" />
<rect x="52" y="38" width="6" height="2" fill="#246CB4" />
<rect x="58" y="38" width="2" height="52" fill="#487EB4" />
<rect x="60" y="38" width="2" height="4" fill="#246CB4" />
<rect x="66" y="38" width="2" height="4" fill="#246CB4" />
<rect x="68" y="38" width="2" height="24" fill="#487EB4" />
<rect x="70" y="38" width="6" height="2" fill="#246CB4" />
<rect x="76" y="38" width="4" height="2" fill="#2E222F" />
<rect x="80" y="38" width="2" height="2" fill="#6C90B4" />
<rect x="108" y="38" width="2" height="52" fill="#246CB4" />
<rect x="112" y="38" width="2" height="8" fill="#005AB4" />
<rect x="114" y="38" width="2" height="4" fill="#2E222F" />
<rect x="8" y="40" width="2" height="6" fill="#B5B5B5" />
<rect x="42" y="40" width="2" height="2" fill="#246CB4" />
<rect x="44" y="40" width="2" height="2" fill="#6C90B4" />
<rect x="46" y="40" width="2" height="2" fill="#2E222F" />
<rect x="48" y="40" width="4" height="2" fill="#246CB4" />
<rect x="52" y="40" width="6" height="48" fill="#487EB4" />
<rect x="70" y="40" width="6" height="22" fill="#487EB4" />
<rect x="76" y="40" width="4" height="2" fill="#246CB4" />
<rect x="80" y="40" width="2" height="2" fill="#2E222F" />
<rect x="82" y="40" width="2" height="2" fill="#6C90B4" />
<rect x="84" y="40" width="2" height="2" fill="#246CB4" />
<rect x="118" y="40" width="2" height="6" fill="#B5B5B5" />
<rect x="10" y="42" width="2" height="4" fill="#2E222F" />
<rect x="12" y="42" width="2" height="12" fill="#005AB4" />
<rect x="16" y="42" width="2" height="44" fill="#246CB4" />
<rect x="42" y="42" width="2" height="2" fill="#6C90B4" />
<rect x="44" y="42" width="2" height="2" fill="#2E222F" />
<rect x="46" y="42" width="2" height="2" fill="#246CB4" />
<rect x="48" y="42" width="4" height="44" fill="#487EB4" />
<rect x="60" y="42" width="2" height="10" fill="#487EB4" />
<rect x="62" y="42" width="4" height="2" fill="#246CB4" />
<rect x="66" y="42" width="2" height="20" fill="#487EB4" />
<rect x="76" y="42" width="4" height="20" fill="#487EB4" />
<rect x="80" y="42" width="2" height="2" fill="#246CB4" />
<rect x="82" y="42" width="2" height="2" fill="#2E222F" />
<rect x="84" y="42" width="2" height="2" fill="#6C90B4" />
<rect x="110" y="42" width="2" height="44" fill="#246CB4" />
<rect x="114" y="42" width="2" height="12" fill="#005AB4" />
<rect x="116" y="42" width="2" height="4" fill="#2E222F" />
<rect x="6" y="44" width="2" height="10" fill="#B5B5B5" />
<rect x="38" y="44" width="2" height="2" fill="#246CB4" />
<rect x="40" y="44" width="2" height="2" fill="#6C90B4" />
<rect x="42" y="44" width="2" height="2" fill="#2E222F" />
<rect x="44" y="44" width="2" height="2" fill="#246CB4" />
<rect x="46" y="44" width="2" height="40" fill="#487EB4" />
<rect x="62" y="44" width="4" height="8" fill="#487EB4" />
<rect x="80" y="44" width="2" height="18" fill="#487EB4" />
<rect x="82" y="44" width="2" height="2" fill="#246CB4" />
<rect x="84" y="44" width="2" height="2" fill="#2E222F" />
<rect x="86" y="44" width="2" height="2" fill="#6C90B4" />
<rect x="88" y="44" width="2" height="2" fill="#246CB4" />
<rect x="120" y="44" width="2" height="10" fill="#B5B5B5" />
<rect x="8" y="46" width="2" height="8" fill="#2E222F" />
<rect x="10" y="46" width="2" height="36" fill="#005AB4" />
<rect x="14" y="46" width="2" height="36" fill="#246CB4" />
<rect x="38" y="46" width="2" height="2" fill="#6C90B4" />
<rect x="40" y="46" width="2" height="2" fill="#2E222F" />
<rect x="42" y="46" width="2" height="2" fill="#246CB4" />
<rect x="44" y="46" width="2" height="36" fill="#487EB4" />
<rect x="82" y="46" width="2" height="36" fill="#487EB4" />
<rect x="84" y="46" width="2" height="2" fill="#246CB4" />
<rect x="86" y="46" width="2" height="2" fill="#2E222F" />
<rect x="88" y="46" width="2" height="2" fill="#6C90B4" />
<rect x="112" y="46" width="2" height="36" fill="#246CB4" />
<rect x="116" y="46" width="2" height="36" fill="#005AB4" />
<rect x="118" y="46" width="2" height="8" fill="#2E222F" />
<rect x="34" y="48" width="2" height="4" fill="#246CB4" />
<rect x="36" y="48" width="2" height="4" fill="#6C90B4" />
<rect x="38" y="48" width="2" height="4" fill="#2E222F" />
<rect x="40" y="48" width="2" height="4" fill="#246CB4" />
<rect x="42" y="48" width="2" height="14" fill="#487EB4" />
<rect x="84" y="48" width="2" height="14" fill="#487EB4" />
<rect x="86" y="48" width="2" height="4" fill="#246CB4" />
<rect x="88" y="48" width="2" height="4" fill="#2E222F" />
<rect x="90" y="48" width="2" height="4" fill="#6C90B4" />
<rect x="92" y="48" width="2" height="4" fill="#246CB4" />
<rect x="4" y="52" width="2" height="24" fill="#B5B5B5" />
<rect x="34" y="52" width="2" height="6" fill="#6C90B4" />
<rect x="36" y="52" width="2" height="6" fill="#2E222F" />
<rect x="38" y="52" width="2" height="6" fill="#246CB4" />
<rect x="40" y="52" width="2" height="8" fill="#487EB4" />
<rect x="60" y="52" width="2" height="14" fill="#246CB4" />
<rect x="62" y="52" width="4" height="10" fill="#2E222F" />
<rect x="86" y="52" width="2" height="8" fill="#487EB4" />
<rect x="88" y="52" width="2" height="6" fill="#246CB4" />
<rect x="90" y="52" width="2" height="6" fill="#2E222F" />
<rect x="92" y="52" width="2" height="6" fill="#6C90B4" />
<rect x="122" y="52" width="2" height="24" fill="#B5B5B5" />
<rect x="6" y="54" width="2" height="20" fill="#2E222F" />
<rect x="8" y="54" width="2" height="20" fill="#005AB4" />
<rect x="12" y="54" width="2" height="20" fill="#246CB4" />
<rect x="114" y="54" width="2" height="20" fill="#246CB4" />
<rect x="118" y="54" width="2" height="20" fill="#005AB4" />
<rect x="120" y="54" width="2" height="20" fill="#2E222F" />
<rect x="32" y="58" width="2" height="12" fill="#6C90B4" />
<rect x="34" y="58" width="2" height="12" fill="#2E222F" />
<rect x="36" y="58" width="2" height="4" fill="#246CB4" />
<rect x="38" y="58" width="2" height="2" fill="#487EB4" />
<rect x="88" y="58" width="2" height="2" fill="#487EB4" />
<rect x="90" y="58" width="2" height="4" fill="#246CB4" />
<rect x="92" y="58" width="2" height="12" fill="#2E222F" />
<rect x="94" y="58" width="2" height="12" fill="#6C90B4" />
<rect x="38" y="60" width="4" height="2" fill="#246CB4" />
<rect x="86" y="60" width="4" height="2" fill="#246CB4" />
<rect x="36" y="62" width="6" height="4" fill="#2E222F" />
<rect x="42" y="62" width="2" height="4" fill="#246CB4" />
<rect x="62" y="62" width="4" height="4" fill="#90A2B4" />
<rect x="66" y="62" width="16" height="4" fill="#2E222F" />
<rect x="84" y="62" width="2" height="4" fill="#246CB4" />
<rect x="86" y="62" width="6" height="4" fill="#2E222F" />
<rect x="36" y="66" width="6" height="2" fill="#246CB4" />
<rect x="42" y="66" width="2" height="14" fill="#487EB4" />
<rect x="60" y="66" width="2" height="18" fill="#487EB4" />
<rect x="62" y="66" width="20" height="2" fill="#246CB4" />
<rect x="84" y="66" width="2" height="14" fill="#487EB4" />
<rect x="86" y="66" width="6" height="2" fill="#246CB4" />
<rect x="36" y="68" width="2" height="2" fill="#246CB4" />
<rect x="38" y="68" width="4" height="2" fill="#487EB4" />
<rect x="62" y="68" width="20" height="14" fill="#487EB4" />
<rect x="86" y="68" width="4" height="2" fill="#487EB4" />
<rect x="90" y="68" width="2" height="2" fill="#246CB4" />
<rect x="32" y="70" width="2" height="36" fill="#246CB4" />
<rect x="34" y="70" width="2" height="6" fill="#6C90B4" />
<rect x="36" y="70" width="2" height="6" fill="#2E222F" />
<rect x="38" y="70" width="2" height="6" fill="#246CB4" />
<rect x="40" y="70" width="2" height="6" fill="#487EB4" />
<rect x="86" y="70" width="2" height="6" fill="#487EB4" />
<rect x="88" y="70" width="2" height="6" fill="#246CB4" />
<rect x="90" y="70" width="2" height="6" fill="#2E222F" />
<rect x="92" y="70" width="2" height="6" fill="#6C90B4" />
<rect x="94" y="70" width="2" height="36" fill="#246CB4" />
<rect x="6" y="74" width="2" height="10" fill="#B5B5B5" />
<rect x="8" y="74" width="2" height="8" fill="#2E222F" />
<rect x="12" y="74" width="2" height="12" fill="#005AB4" />
<rect x="114" y="74" width="2" height="12" fill="#005AB4" />
<rect x="118" y="74" width="2" height="8" fill="#2E222F" />
<rect x="120" y="74" width="2" height="10" fill="#B5B5B5" />
<rect x="34" y="76" width="2" height="32" fill="#246CB4" />
<rect x="36" y="76" width="2" height="4" fill="#6C90B4" />
<rect x="38" y="76" width="2" height="4" fill="#2E222F" />
<rect x="40" y="76" width="2" height="4" fill="#246CB4" />
<rect x="86" y="76" width="2" height="4" fill="#246CB4" />
<rect x="88" y="76" width="2" height="4" fill="#2E222F" />
<rect x="90" y="76" width="2" height="4" fill="#6C90B4" />
<rect x="92" y="76" width="2" height="32" fill="#246CB4" />
<rect x="36" y="80" width="2" height="28" fill="#246CB4" />
<rect x="38" y="80" width="2" height="2" fill="#6C90B4" />
<rect x="40" y="80" width="2" height="2" fill="#2E222F" />
<rect x="42" y="80" width="2" height="2" fill="#246CB4" />
<rect x="84" y="80" width="2" height="2" fill="#246CB4" />
<rect x="86" y="80" width="2" height="2" fill="#2E222F" />
<rect x="88" y="80" width="2" height="2" fill="#6C90B4" />
<rect x="90" y="80" width="2" height="28" fill="#246CB4" />
<rect x="8" y="82" width="2" height="6" fill="#B5B5B5" />
<rect x="10" y="82" width="2" height="4" fill="#2E222F" />
<rect x="14" y="82" width="2" height="8" fill="#005AB4" />
<rect x="38" y="82" width="2" height="28" fill="#246CB4" />
<rect x="40" y="82" width="2" height="2" fill="#6C90B4" />
<rect x="42" y="82" width="2" height="2" fill="#2E222F" />
<rect x="44" y="82" width="2" height="2" fill="#246CB4" />
<rect x="62" y="82" width="4" height="2" fill="#246CB4" />
<rect x="66" y="82" width="16" height="2" fill="#487EB4" />
<rect x="82" y="82" width="2" height="2" fill="#246CB4" />
<rect x="84" y="82" width="2" height="2" fill="#2E222F" />
<rect x="86" y="82" width="2" height="2" fill="#6C90B4" />
<rect x="88" y="82" width="2" height="28" fill="#246CB4" />
<rect x="112" y="82" width="2" height="8" fill="#005AB4" />
<rect x="116" y="82" width="2" height="4" fill="#2E222F" />
<rect x="118" y="82" width="2" height="6" fill="#B5B5B5" />
<rect x="40" y="84" width="2" height="26" fill="#246CB4" />
<rect x="42" y="84" width="2" height="2" fill="#6C90B4" />
<rect x="44" y="84" width="2" height="2" fill="#2E222F" />
<rect x="46" y="84" width="2" height="2" fill="#246CB4" />
<rect x="60" y="84" width="2" height="8" fill="#246CB4" />
<rect x="62" y="84" width="4" height="10" fill="#2E222F" />
<rect x="66" y="84" width="2" height="8" fill="#246CB4" />
<rect x="68" y="84" width="12" height="2" fill="#487EB4" />
<rect x="80" y="84" width="2" height="2" fill="#246CB4" />
<rect x="82" y="84" width="2" height="2" fill="#2E222F" />
<rect x="84" y="84" width="2" height="2" fill="#6C90B4" />
<rect x="86" y="84" width="2" height="26" fill="#246CB4" />
<rect x="10" y="86" width="2" height="6" fill="#B5B5B5" />
<rect x="12" y="86" width="2" height="4" fill="#2E222F" />
<rect x="16" y="86" width="2" height="8" fill="#005AB4" />
<rect x="42" y="86" width="2" height="26" fill="#246CB4" />
<rect x="44" y="86" width="2" height="2" fill="#6C90B4" />
<rect x="46" y="86" width="2" height="2" fill="#2E222F" />
<rect x="48" y="86" width="4" height="2" fill="#246CB4" />
<rect x="68" y="86" width="8" height="2" fill="#487EB4" />
<rect x="76" y="86" width="4" height="2" fill="#246CB4" />
<rect x="80" y="86" width="2" height="2" fill="#2E222F" />
<rect x="82" y="86" width="2" height="2" fill="#6C90B4" />
<rect x="84" y="86" width="2" height="26" fill="#246CB4" />
<rect x="110" y="86" width="2" height="8" fill="#005AB4" />
<rect x="114" y="86" width="2" height="4" fill="#2E222F" />
<rect x="116" y="86" width="2" height="6" fill="#B5B5B5" />
<rect x="44" y="88" width="2" height="24" fill="#246CB4" />
<rect x="46" y="88" width="2" height="2" fill="#6C90B4" />
<rect x="48" y="88" width="4" height="2" fill="#2E222F" />
<rect x="52" y="88" width="6" height="2" fill="#246CB4" />
<rect x="68" y="88" width="2" height="2" fill="#487EB4" />
<rect x="70" y="88" width="6" height="2" fill="#246CB4" />
<rect x="76" y="88" width="4" height="2" fill="#2E222F" />
<rect x="80" y="88" width="2" height="2" fill="#6C90B4" />
<rect x="82" y="88" width="2" height="24" fill="#246CB4" />
<rect x="12" y="90" width="2" height="6" fill="#B5B5B5" />
<rect x="14" y="90" width="2" height="4" fill="#2E222F" />
<rect x="18" y="90" width="2" height="6" fill="#005AB4" />
<rect x="46" y="90" width="2" height="24" fill="#246CB4" />
<rect x="48" y="90" width="4" height="2" fill="#6C90B4" />
<rect x="52" y="90" width="6" height="2" fill="#2E222F" />
<rect x="58" y="90" width="2" height="2" fill="#246CB4" />
<rect x="68" y="90" width="2" height="2" fill="#246CB4" />
<rect x="70" y="90" width="6" height="2" fill="#2E222F" />
<rect x="76" y="90" width="4" height="2" fill="#6C90B4" />
<rect x="80" y="90" width="2" height="24" fill="#246CB4" />
<rect x="108" y="90" width="2" height="6" fill="#005AB4" />
<rect x="112" y="90" width="2" height="4" fill="#2E222F" />
<rect x="114" y="90" width="2" height="6" fill="#B5B5B5" />
<rect x="48" y="92" width="4" height="22" fill="#246CB4" />
<rect x="52" y="92" width="6" height="2" fill="#6C90B4" />
<rect x="58" y="92" width="4" height="2" fill="#2E222F" />
<rect x="66" y="92" width="4" height="2" fill="#2E222F" />
<rect x="70" y="92" width="6" height="2" fill="#6C90B4" />
<rect x="76" y="92" width="4" height="22" fill="#246CB4" />
<rect x="14" y="94" width="2" height="4" fill="#B5B5B5" />
<rect x="16" y="94" width="2" height="2" fill="#2E222F" />
<rect x="20" y="94" width="2" height="6" fill="#005AB4" />
<rect x="52" y="94" width="6" height="20" fill="#246CB4" />
<rect x="58" y="94" width="12" height="2" fill="#6C90B4" />
<rect x="70" y="94" width="6" height="20" fill="#246CB4" />
<rect x="106" y="94" width="2" height="6" fill="#005AB4" />
<rect x="110" y="94" width="2" height="2" fill="#2E222F" />
<rect x="112" y="94" width="2" height="4" fill="#B5B5B5" />
<rect x="16" y="96" width="2" height="6" fill="#B5B5B5" />
<rect x="18" y="96" width="2" height="4" fill="#2E222F" />
<rect x="22" y="96" width="2" height="6" fill="#005AB4" />
<rect x="58" y="96" width="12" height="20" fill="#246CB4" />
<rect x="104" y="96" width="2" height="6" fill="#005AB4" />
<rect x="108" y="96" width="2" height="4" fill="#2E222F" />
<rect x="110" y="96" width="2" height="6" fill="#B5B5B5" />
<rect x="18" y="100" width="2" height="4" fill="#B5B5B5" />
<rect x="20" y="100" width="2" height="2" fill="#2E222F" />
<rect x="24" y="100" width="2" height="4" fill="#005AB4" />
<rect x="102" y="100" width="2" height="4" fill="#005AB4" />
<rect x="106" y="100" width="2" height="2" fill="#2E222F" />
<rect x="108" y="100" width="2" height="4" fill="#B5B5B5" />
<rect x="20" y="102" width="2" height="4" fill="#B5B5B5" />
<rect x="22" y="102" width="2" height="2" fill="#2E222F" />
<rect x="26" y="102" width="2" height="4" fill="#005AB4" />
<rect x="100" y="102" width="2" height="4" fill="#005AB4" />
<rect x="104" y="102" width="2" height="2" fill="#2E222F" />
<rect x="106" y="102" width="2" height="4" fill="#B5B5B5" />
<rect x="22" y="104" width="2" height="4" fill="#B5B5B5" />
<rect x="24" y="104" width="2" height="2" fill="#2E222F" />
<rect x="28" y="104" width="4" height="4" fill="#005AB4" />
<rect x="96" y="104" width="2" height="2" fill="#246CB4" />
<rect x="98" y="104" width="2" height="4" fill="#005AB4" />
<rect x="102" y="104" width="2" height="2" fill="#2E222F" />
<rect x="104" y="104" width="2" height="4" fill="#B5B5B5" />
<rect x="24" y="106" width="2" height="4" fill="#B5B5B5" />
<rect x="26" y="106" width="2" height="2" fill="#2E222F" />
<rect x="32" y="106" width="2" height="4" fill="#005AB4" />
<rect x="94" y="106" width="4" height="2" fill="#005AB4" />
<rect x="100" y="106" width="2" height="2" fill="#2E222F" />
<rect x="102" y="106" width="2" height="4" fill="#B5B5B5" />
<rect x="26" y="108" width="2" height="4" fill="#B5B5B5" />
<rect x="28" y="108" width="4" height="2" fill="#2E222F" />
<rect x="34" y="108" width="4" height="4" fill="#005AB4" />
<rect x="90" y="108" width="6" height="2" fill="#005AB4" />
<rect x="96" y="108" width="4" height="2" fill="#2E222F" />
<rect x="100" y="108" width="2" height="4" fill="#B5B5B5" />
<rect x="28" y="110" width="4" height="2" fill="#B5B5B5" />
<rect x="32" y="110" width="2" height="2" fill="#2E222F" />
<rect x="38" y="110" width="4" height="4" fill="#005AB4" />
<rect x="86" y="110" width="8" height="2" fill="#005AB4" />
<rect x="94" y="110" width="2" height="2" fill="#2E222F" />
<rect x="96" y="110" width="4" height="2" fill="#B5B5B5" />
<rect x="30" y="112" width="4" height="2" fill="#B5B5B5" />
<rect x="34" y="112" width="4" height="2" fill="#2E222F" />
<rect x="42" y="112" width="4" height="4" fill="#005AB4" />
<rect x="82" y="112" width="8" height="2" fill="#005AB4" />
<rect x="90" y="112" width="4" height="2" fill="#2E222F" />
<rect x="94" y="112" width="4" height="2" fill="#B5B5B5" />
<rect x="32" y="114" width="6" height="2" fill="#B5B5B5" />
<rect x="38" y="114" width="4" height="2" fill="#2E222F" />
<rect x="46" y="114" width="8" height="4" fill="#005AB4" />
<rect x="54" y="114" width="4" height="2" fill="#246CB4" />
<rect x="70" y="114" width="4" height="2" fill="#246CB4" />
<rect x="74" y="114" width="12" height="2" fill="#005AB4" />
<rect x="86" y="114" width="4" height="2" fill="#2E222F" />
<rect x="90" y="114" width="6" height="2" fill="#B5B5B5" />
<rect x="36" y="116" width="6" height="2" fill="#B5B5B5" />
<rect x="42" y="116" width="4" height="2" fill="#2E222F" />
<rect x="54" y="116" width="28" height="2" fill="#005AB4" />
<rect x="82" y="116" width="4" height="2" fill="#2E222F" />
<rect x="86" y="116" width="6" height="2" fill="#B5B5B5" />
<rect x="40" y="118" width="6" height="2" fill="#B5B5B5" />
<rect x="46" y="118" width="8" height="2" fill="#2E222F" />
<rect x="54" y="118" width="20" height="2" fill="#005AB4" />
<rect x="74" y="118" width="8" height="2" fill="#2E222F" />
<rect x="82" y="118" width="6" height="2" fill="#B5B5B5" />
<rect x="44" y="120" width="10" height="2" fill="#B5B5B5" />
<rect x="54" y="120" width="20" height="2" fill="#2E222F" />
<rect x="74" y="120" width="10" height="2" fill="#B5B5B5" />
<rect x="52" y="122" width="24" height="2" fill="#B5B5B5" />
</svg>